<?xml version="1.0" encoding="UTF-8" standalone="no"?>
<!-- Created with Inkscape (http://www.inkscape.org/) -->

<svg
   width="62.444618mm"
   height="57.158916mm"
   viewBox="0 0 62.444618 57.158916"
   version="1.1"
   id="svg1"
   xml:space="preserve"
   inkscape:version="1.3 (0e150ed6c4, 2023-07-21)"
   sodipodi:docname="documento-2.svg"
   xmlns:inkscape="http://www.inkscape.org/namespaces/inkscape"
   xmlns:sodipodi="http://sodipodi.sourceforge.net/DTD/sodipodi-0.dtd"
   xmlns="http://www.w3.org/2000/svg"
   xmlns:svg="http://www.w3.org/2000/svg"><sodipodi:namedview
     id="namedview1"
     pagecolor="#ffffff"
     bordercolor="#000000"
     borderopacity="0.25"
     inkscape:showpageshadow="2"
     inkscape:pageopacity="0.0"
     inkscape:pagecheckerboard="0"
     inkscape:deskcolor="#d1d1d1"
     inkscape:document-units="mm"
     inkscape:zoom="0.65315026"
     inkscape:cx="482.278"
     inkscape:cy="605.52682"
     inkscape:window-width="1366"
     inkscape:window-height="697"
     inkscape:window-x="-8"
     inkscape:window-y="-8"
     inkscape:window-maximized="1"
     inkscape:current-layer="layer1" /><defs
     id="defs1"><filter
       style="color-interpolation-filters:sRGB"
       inkscape:label="Blur"
       id="filter8"
       x="-0.092140223"
       y="-0.11034943"
       width="1.1842804"
       height="1.2206989"><feGaussianBlur
         stdDeviation="1.34 1.54359"
         result="blur"
         id="feGaussianBlur8" /></filter></defs><g
     inkscape:label="Camada 1"
     inkscape:groupmode="layer"
     id="layer1"
     transform="translate(-55.650804,-89.887021)"><rect
       style="fill:#ff7f2a;fill-opacity:1;stroke-width:0.24507;stroke-linejoin:round;paint-order:markers stroke fill"
       id="rect1"
       width="58.303516"
       height="56.630058"
       x="59.791904"
       y="89.887016"
       ry="21.498472"
       inkscape:export-filename="rect1.png"
       inkscape:export-xdpi="96"
       inkscape:export-ydpi="96" /><text
       xml:space="preserve"
       style="font-size:50.6412px;line-height:56.9714px;font-family:Coolvetica;-inkscape-font-specification:Coolvetica;letter-spacing:1.80861px;word-spacing:0px;text-orientation:upright;fill:#ffffff;fill-opacity:1;stroke:none;stroke-width:68.3571;stroke-linejoin:round;stroke-dasharray:none;stroke-opacity:1;paint-order:markers stroke fill"
       x="68.943886"
       y="131.43518"
       id="text1"><tspan
         sodipodi:role="line"
         id="tspan1"
         style="stroke:none;stroke-width:68.3571"
         x="68.943886"
         y="131.43518">m</tspan></text><path
       id="path2"
       style="color:#000000;-inkscape-font-specification:Coolvetica;fill:#ff7f2a;stroke:#ffffff;stroke-width:4.93705;stroke-linejoin:round;stroke-dasharray:none;stroke-opacity:1;paint-order:markers stroke fill"
       d="m 63.201668,132.36288 a 1.0253911,1.0253911 0 0 0 -1.02403,1.02403 v 3.03253 h -3.03252 a 1.0253911,1.0253911 0 0 0 -1.02579,1.02579 v 2.02828 a 1.0253911,1.0253911 0 0 0 1.02579,1.02402 h 3.03252 v 3.05408 a 1.0253911,1.0253911 0 0 0 1.02403,1.0258 h 2.02828 a 1.0253911,1.0253911 0 0 0 1.02579,-1.0258 v -3.05408 h 3.05407 a 1.0253911,1.0253911 0 0 0 1.02404,-1.02402 v -2.02828 a 1.0253911,1.0253911 0 0 0 -1.02404,-1.02579 h -3.05407 v -3.03253 a 1.0253911,1.0253911 0 0 0 -1.02579,-1.02403 z" /><path
       sodipodi:type="star"
       style="fill:#0a0a0a;fill-opacity:0.409336;stroke:none;stroke-width:18.0949;stroke-linejoin:round;stroke-dasharray:none;stroke-opacity:1;paint-order:markers stroke fill;filter:url(#filter8)"
       id="path1"
       inkscape:flatsided="false"
       sodipodi:sides="5"
       sodipodi:cx="90.836197"
       sodipodi:cy="54.319134"
       sodipodi:r1="18.360949"
       sodipodi:r2="9.1804743"
       sodipodi:arg1="0.97738438"
       sodipodi:arg2="1.6057029"
       inkscape:rounded="0"
       inkscape:randomized="0"
       d="M 101.10351,69.54105 90.515803,63.494016 79.532068,68.787759 82.011359,56.849616 73.582549,48.03932 85.702541,46.708176 91.476985,35.96937 96.488261,47.084821 108.48587,49.25817 99.463021,57.459041 Z"
       inkscape:transform-center-x="-0.092763473"
       inkscape:transform-center-y="-0.73265694"
       transform="matrix(0.46847363,0,0,0.46847363,62.734989,82.226727)" /><path
       sodipodi:type="star"
       style="fill:#ffffff;fill-opacity:1;stroke:none;stroke-width:18.0949;stroke-linejoin:round;stroke-dasharray:none;stroke-opacity:1;paint-order:markers stroke fill"
       id="path6"
       inkscape:flatsided="false"
       sodipodi:sides="5"
       sodipodi:cx="90.836197"
       sodipodi:cy="54.319134"
       sodipodi:r1="18.360949"
       sodipodi:r2="9.1804743"
       sodipodi:arg1="0.97738438"
       sodipodi:arg2="1.6057029"
       inkscape:rounded="0"
       inkscape:randomized="0"
       d="M 101.10351,69.54105 90.515803,63.494016 79.532068,68.787759 82.011359,56.849616 73.582549,48.03932 85.702541,46.708176 91.476985,35.96937 96.488261,47.084821 108.48587,49.25817 99.463021,57.459041 Z"
       inkscape:transform-center-x="-0.092763473"
       inkscape:transform-center-y="-0.73265694"
       transform="matrix(0.46847363,0,0,0.46847363,63.07992,81.230623)" /></g></svg>
